<?xml version="1.0" encoding="UTF-8" standalone="no"?>
<!DOCTYPE svg PUBLIC "-//W3C//DTD SVG 1.1//EN"
 "http://www.w3.org/Graphics/SVG/1.1/DTD/svg11.dtd">
<!-- Generated by graphviz version 2.44.1 (20200629.0846)
 -->
<!-- Title: g Pages: 1 -->
<svg width="459pt" height="230pt"
 viewBox="0.00 0.00 459.00 229.60" xmlns="http://www.w3.org/2000/svg" xmlns:xlink="http://www.w3.org/1999/xlink">
<g id="graph0" class="graph" transform="scale(1 1) rotate(0) translate(4 225.6)">
<title>g</title>
<polygon fill="#0c041c" stroke="transparent" points="-4,4 -4,-225.6 455,-225.6 455,4 -4,4"/>
<!-- group_colored_nodes -->
<g id="node1" class="node">
<title>group_colored_nodes</title>
<path fill="#0c041c" stroke="#ebf2ff" d="M100,-221.6C100,-221.6 12,-221.6 12,-221.6 6,-221.6 0,-215.6 0,-209.6 0,-209.6 0,-197.6 0,-197.6 0,-191.6 6,-185.6 12,-185.6 12,-185.6 100,-185.6 100,-185.6 106,-185.6 112,-191.6 112,-197.6 112,-197.6 112,-209.6 112,-209.6 112,-215.6 106,-221.6 100,-221.6"/>
<text text-anchor="middle" x="56" y="-199.8" font-family="AnonymousPro-Bold" font-size="16.00" fill="#ebf2ff">Nodes colors</text>
</g>
<!-- colored_nodes_technology -->
<g id="node2" class="node">
<title>colored_nodes_technology</title>
<path fill="#4b1c57" stroke="#ebf2ff" d="M93,-112.6C93,-112.6 19,-112.6 19,-112.6 13,-112.6 7,-106.6 7,-100.6 7,-100.6 7,-88.6 7,-88.6 7,-82.6 13,-76.6 19,-76.6 19,-76.6 93,-76.6 93,-76.6 99,-76.6 105,-82.6 105,-88.6 105,-88.6 105,-100.6 105,-100.6 105,-106.6 99,-112.6 93,-112.6"/>
<text text-anchor="middle" x="56" y="-90.8" font-family="AnonymousPro-Bold" font-size="16.00" fill="#ebf2ff">Technology</text>
</g>
<!-- group_colored_nodes&#45;&gt;colored_nodes_technology -->
<g id="edge1" class="edge">
<title>group_colored_nodes&#45;&gt;colored_nodes_technology</title>
<path fill="none" stroke="#ebf2ff" stroke-width="2" d="M56,-185.11C56,-185.11 56,-122.82 56,-122.82"/>
<polygon fill="#ebf2ff" stroke="#ebf2ff" stroke-width="2" points="59.5,-122.82 56,-112.82 52.5,-122.82 59.5,-122.82"/>
</g>
<!-- group_flag_nodes -->
<g id="node3" class="node">
<title>group_flag_nodes</title>
<path fill="#0c041c" stroke="#ebf2ff" d="M214,-221.6C214,-221.6 184,-221.6 184,-221.6 178,-221.6 172,-215.6 172,-209.6 172,-209.6 172,-197.6 172,-197.6 172,-191.6 178,-185.6 184,-185.6 184,-185.6 214,-185.6 214,-185.6 220,-185.6 226,-191.6 226,-197.6 226,-197.6 226,-209.6 226,-209.6 226,-215.6 220,-221.6 214,-221.6"/>
<text text-anchor="middle" x="199" y="-199.8" font-family="AnonymousPro-Bold" font-size="16.00" fill="#ebf2ff">Flags</text>
</g>
<!-- flag_nodes_hand_research -->
<g id="node4" class="node">
<title>flag_nodes_hand_research</title>
<path fill="#0c041c" stroke="#ebf2ff" d="M263,-112.6C263,-112.6 135,-112.6 135,-112.6 129,-112.6 123,-106.6 123,-100.6 123,-100.6 123,-88.6 123,-88.6 123,-82.6 129,-76.6 135,-76.6 135,-76.6 263,-76.6 263,-76.6 269,-76.6 275,-82.6 275,-88.6 275,-88.6 275,-100.6 275,-100.6 275,-106.6 269,-112.6 263,-112.6"/>
<text text-anchor="middle" x="199" y="-90.8" font-family="AnonymousPro-Bold" font-size="16.00" fill="#ebf2ff">🤚: Hand research</text>
</g>
<!-- group_flag_nodes&#45;&gt;flag_nodes_hand_research -->
<g id="edge2" class="edge">
<title>group_flag_nodes&#45;&gt;flag_nodes_hand_research</title>
<path fill="none" stroke="#ebf2ff" stroke-width="2" d="M199,-185.11C199,-185.11 199,-122.82 199,-122.82"/>
<polygon fill="#ebf2ff" stroke="#ebf2ff" stroke-width="2" points="202.5,-122.82 199,-112.82 195.5,-122.82 202.5,-122.82"/>
</g>
<!-- group_colored_edges -->
<g id="node5" class="node">
<title>group_colored_edges</title>
<path fill="#0c041c" stroke="#ebf2ff" d="M418.5,-221.6C418.5,-221.6 325.5,-221.6 325.5,-221.6 319.5,-221.6 313.5,-215.6 313.5,-209.6 313.5,-209.6 313.5,-197.6 313.5,-197.6 313.5,-191.6 319.5,-185.6 325.5,-185.6 325.5,-185.6 418.5,-185.6 418.5,-185.6 424.5,-185.6 430.5,-191.6 430.5,-197.6 430.5,-197.6 430.5,-209.6 430.5,-209.6 430.5,-215.6 424.5,-221.6 418.5,-221.6"/>
<text text-anchor="middle" x="372" y="-199.8" font-family="AnonymousPro-Bold" font-size="16.00" fill="#ebf2ff">Arrows colors</text>
</g>
<!-- colored_edges_technology_relation -->
<g id="node7" class="node">
<title>colored_edges_technology_relation</title>
<path fill="#0c041c" stroke="#ebf2ff" d="M439,-112.6C439,-112.6 305,-112.6 305,-112.6 299,-112.6 293,-106.6 293,-100.6 293,-100.6 293,-88.6 293,-88.6 293,-82.6 299,-76.6 305,-76.6 305,-76.6 439,-76.6 439,-76.6 445,-76.6 451,-82.6 451,-88.6 451,-88.6 451,-100.6 451,-100.6 451,-106.6 445,-112.6 439,-112.6"/>
<text text-anchor="middle" x="372" y="-90.8" font-family="AnonymousPro-Bold" font-size="16.00" fill="#ebf2ff">Technology relation</text>
</g>
<!-- group_colored_edges&#45;&gt;colored_edges_technology_relation -->
<g id="edge4" class="edge">
<title>group_colored_edges&#45;&gt;colored_edges_technology_relation</title>
<path fill="none" stroke="#ebf2ff" stroke-width="2" d="M372,-185.11C372,-185.11 372,-122.82 372,-122.82"/>
<polygon fill="#ebf2ff" stroke="#ebf2ff" stroke-width="2" points="375.5,-122.82 372,-112.82 368.5,-122.82 375.5,-122.82"/>
</g>
<!-- point_technology_relation -->
<g id="node6" class="node">
<title>point_technology_relation</title>
<ellipse fill="#ebf2ff" stroke="#ebf2ff" cx="372" cy="-1.8" rx="1.8" ry="1.8"/>
</g>
<!-- colored_edges_technology_relation&#45;&gt;point_technology_relation -->
<g id="edge3" class="edge">
<title>colored_edges_technology_relation&#45;&gt;point_technology_relation</title>
<path fill="none" stroke="#36325b" stroke-width="2" d="M372,-76.27C372,-76.27 372,-13.89 372,-13.89"/>
<polygon fill="#36325b" stroke="#36325b" stroke-width="2" points="375.5,-13.89 372,-3.89 368.5,-13.89 375.5,-13.89"/>
</g>
</g>
</svg>
